<svg xmlns="http://www.w3.org/2000/svg" width="60" height="76" viewBox="0 0 60 76"><defs><style>.a{fill:#fff;}</style></defs><g transform="translate(0 15.582)"><path class="a" d="M760.993,311A30.21,30.21,0,1,0,791,341.2,30.131,30.131,0,0,0,760.993,311Zm1.214,57.97v-2.289a1.2,1.2,0,1,0-2.4,0v2.29a27.728,27.728,0,0,1-26.376-26.547H735.7a1.209,1.209,0,0,0,0-2.417H733.43a27.721,27.721,0,0,1,26.363-26.56v2.289a1.2,1.2,0,1,0,2.4,0v-2.29a27.728,27.728,0,0,1,26.377,26.547H786.3a1.208,1.208,0,0,0,0,2.417h2.273a27.735,27.735,0,0,1-26.362,26.56Zm0,0" transform="translate(-731 -311)"/><path class="a" d="M27.452.366A1.2,1.2,0,0,0,26.078.142L9.046,8.487a1.244,1.244,0,0,0-.558.558L.142,26.077A1.19,1.19,0,0,0,1.214,27.8a1.217,1.217,0,0,0,.526-.124l17.032-8.345a1.014,1.014,0,0,0,.558-.558L27.675,1.74A1.2,1.2,0,0,0,27.452.366ZM3.832,23.985,9.9,11.606l6.313,6.313Zm14.087-7.774L11.606,9.9Zm0,0" transform="translate(10.33 30.209) rotate(-45)"/></g><path class="a" d="M918.969,357.339a.973.973,0,0,0,.973-.973v-4.258l3.216,4.657a1.069,1.069,0,0,0,1.209.444,1.1,1.1,0,0,0,.756-1.092v-.009l-.069-7.144a.973.973,0,0,0-.973-.963h-.009a.973.973,0,0,0-.963.982l.042,4.346-3.38-4.895a.973.973,0,0,0-1.773.553v7.379a.973.973,0,0,0,.973.973Zm0,0" transform="translate(-891.728 -348)"/></svg>