<svg xmlns="http://www.w3.org/2000/svg" xmlns:xlink="http://www.w3.org/1999/xlink" width="78.473" height="94.054" viewBox="0 0 78.473 94.054"><defs><style>.a{fill:#696969;}.b{filter:url(#c);}.c{filter:url(#a);}</style><filter id="a" x="0" y="15.582" width="78.473" height="78.473" filterUnits="userSpaceOnUse"><feOffset dy="3" input="SourceAlpha"/><feGaussianBlur stdDeviation="3" result="b"/><feFlood flood-opacity="0.161"/><feComposite operator="in" in2="b"/><feComposite in="SourceGraphic"/></filter><filter id="c" x="26.503" y="0" width="25.126" height="27.339" filterUnits="userSpaceOnUse"><feOffset dy="3" input="SourceAlpha"/><feGaussianBlur stdDeviation="3" result="d"/><feFlood flood-opacity="0.161"/><feComposite operator="in" in2="d"/><feComposite in="SourceGraphic"/></filter></defs><g transform="translate(-610 -155)"><g transform="translate(-112 -134.418)"><g class="c" transform="matrix(1, 0, 0, 1, 722, 289.42)"><path class="a" d="M761.229,311a30.236,30.236,0,1,0,30.243,30.229A30.263,30.263,0,0,0,761.229,311Zm1.224,58.022v-2.291a1.21,1.21,0,1,0-2.419,0v2.292a27.849,27.849,0,0,1-26.584-26.57h2.291a1.21,1.21,0,0,0,0-2.419h-2.292a27.842,27.842,0,0,1,26.57-26.584v2.291a1.209,1.209,0,0,0,2.419,0v-2.292a27.849,27.849,0,0,1,26.584,26.57h-2.291a1.209,1.209,0,1,0,0,2.419h2.291a27.855,27.855,0,0,1-26.57,26.584Zm0,0" transform="translate(-722 -289.42)"/></g><path class="a" d="M27.477.354A1.21,1.21,0,0,0,26.093.121L8.991,8.432a1.233,1.233,0,0,0-.559.559L.122,26.093A1.21,1.21,0,0,0,1.739,27.71l17.1-8.31a1,1,0,0,0,.558-.559l8.31-17.1A1.209,1.209,0,0,0,27.477.354ZM3.826,24.006l6.041-12.43,6.389,6.39Zm14.14-7.75-6.39-6.389Zm0,0" transform="translate(741.556 341.237) rotate(-45)"/></g><g class="b" transform="matrix(1, 0, 0, 1, 610, 155)"><path class="a" d="M918.969,357.339a.973.973,0,0,0,.973-.973v-4.258l3.216,4.657a1.069,1.069,0,0,0,1.209.444,1.1,1.1,0,0,0,.756-1.092v-.009l-.069-7.144a.973.973,0,0,0-.973-.963h-.009a.973.973,0,0,0-.963.982l.042,4.346-3.38-4.895a.973.973,0,0,0-1.773.553v7.379a.973.973,0,0,0,.973.973Zm0,0" transform="translate(-882.49 -342)"/></g></g></svg>