<svg xmlns="http://www.w3.org/2000/svg" width="40" height="40" viewBox="0 0 40 40"><defs><style>.a{opacity:0.8;}.b,.c{fill:#fff;}.b{opacity:0;}</style></defs><g class="a" transform="translate(0.079 1.312)"><path class="b" d="M0,0H40V40H0Z" transform="translate(-0.079 -1.312)"/><g transform="translate(-1096.267 -419.585)"><path class="c" d="M1131.841,429.274H1101.43a.242.242,0,0,0-.242.242h0v2.9a2.173,2.173,0,0,0,2.173,2.171h26.549a2.171,2.171,0,0,0,2.17-2.171v-2.9a.24.24,0,0,0-.236-.242h0Z"/><path class="c" d="M1116.634,441.02a3.38,3.38,0,0,0-3.379,3.379v5.827a13.016,13.016,0,0,0,6.758,0V444.4a3.383,3.383,0,0,0-3.379-3.38Zm.03,5.952a2.222,2.222,0,1,1,2.223-2.222A2.222,2.222,0,0,1,1116.664,446.972Z"/><path class="c" d="M1129.425,436.492h-25.581a.245.245,0,0,0-.244.242v.965c0,5.521,3.015,10.442,8.22,12.284v-5.526a4.832,4.832,0,1,1,9.663-.014v5.541c5.206-1.842,8.179-6.763,8.181-12.284v-.965a.24.24,0,0,0-.24-.242h0Z"/></g></g></svg>