<svg xmlns="http://www.w3.org/2000/svg" xmlns:xlink="http://www.w3.org/1999/xlink" width="39.247" height="49.617" viewBox="0 0 39.247 49.617"><defs><style>.a{fill:#fff;}.b{fill:#009b4e;}.c{filter:url(#a);}</style><filter id="a" x="0" y="0" width="39.247" height="49.617" filterUnits="userSpaceOnUse"><feOffset dy="2" input="SourceAlpha"/><feGaussianBlur stdDeviation="2" result="b"/><feFlood flood-opacity="0.302"/><feComposite operator="in" in2="b"/><feComposite in="SourceGraphic"/></filter></defs><g transform="translate(6 4)"><path class="a" d="M9.563,0A9.563,9.563,0,1,1,0,9.563,9.563,9.563,0,0,1,9.563,0Z" transform="translate(3.643 4.554)"/><g class="c" transform="matrix(1, 0, 0, 1, -6, -4)"><path class="b" d="M84.2,0A13.639,13.639,0,0,0,70.574,13.623c0,9.323,12.192,23.009,12.711,23.587a1.227,1.227,0,0,0,1.825,0c.519-.578,12.711-14.264,12.711-23.587A13.639,13.639,0,0,0,84.2,0Zm0,20.478a6.854,6.854,0,1,1,6.854-6.854A6.862,6.862,0,0,1,84.2,20.478Z" transform="translate(-64.57 4)"/></g></g></svg>