<svg xmlns="http://www.w3.org/2000/svg" width="40" height="40" viewBox="0 0 40 40"><defs><style>.a{opacity:0.8;}.b,.c{fill:#fff;}.b{opacity:0;}</style></defs><g class="a" transform="translate(0 1)"><rect class="b" width="40" height="40" transform="translate(0 -1)"/><path class="c" d="M27.586,21.333H2.508A2.451,2.451,0,0,0,0,23.718V40.41a2.451,2.451,0,0,0,2.508,2.385h8.78a5.2,5.2,0,0,1-.935,3.191,1.263,1.263,0,0,1-.949.386.6.6,0,1,0,0,1.192H20.69a.6.6,0,1,0,0-1.192,1.258,1.258,0,0,1-.948-.385,5.2,5.2,0,0,1-.935-3.192h8.78a2.451,2.451,0,0,0,2.508-2.385V23.718A2.451,2.451,0,0,0,27.586,21.333ZM15.047,41.606a1.2,1.2,0,1,1,1.258-1.2A1.23,1.23,0,0,1,15.047,41.606ZM2.508,38.025V23.718H27.586V38.025Z" transform="translate(4.502 -14.965)"/></g></svg>