<svg xmlns="http://www.w3.org/2000/svg" xmlns:xlink="http://www.w3.org/1999/xlink" width="122" height="288" viewBox="0 0 122 288"><defs><style>.a,.e{fill:#4fb3b5;}.b{fill:#fff;opacity:0.8;}.c{fill:#ffd1d1;}.c,.e{opacity:0;}.d,.g{fill:rgba(0,0,0,0.75);font-size:16px;}.d{font-family:PingFangSC-Regular, PingFang SC;}.f{clip-path:url(#c);}.g{font-family:Roboto-Regular, Roboto;}.h{filter:url(#a);}</style><filter id="a" x="0" y="0" width="122" height="288" filterUnits="userSpaceOnUse"><feOffset dy="3" input="SourceAlpha"/><feGaussianBlur stdDeviation="3" result="b"/><feFlood flood-opacity="0.161"/><feComposite operator="in" in2="b"/><feComposite in="SourceGraphic"/></filter><clipPath id="c"><rect class="a" width="37" height="34"/></clipPath></defs><g transform="translate(-431 -680)"><g transform="translate(440 776)"><g class="h" transform="matrix(1, 0, 0, 1, -9, -96)"><rect class="b" width="104" height="270" rx="5" transform="translate(9 6)"/></g><g transform="translate(-206 -538)"><g transform="translate(159)"><rect class="c" width="104" height="90" transform="translate(47 628)"/></g><g transform="translate(192 -189)"><text class="d" transform="translate(26 894)"><tspan x="0" y="0">路口攝影機</tspan></text><g transform="translate(42 829)"><path class="e" d="M0,0H48V48H0Z"/><g transform="translate(5 7)"><g transform="translate(0 0)"><g class="f"><path class="a" d="M1055.36,618.621l-.985-.84-10.559,5.362,3.954,3.228a1.051,1.051,0,0,0,1.4-.066l6.247-6.177a1.023,1.023,0,0,0-.056-1.507Zm0,0" transform="translate(-1020.185 -595.514)"/><path class="a" d="M712.4,607.274h-6.316v-1.716a1.041,1.041,0,0,0-2.082,0v9.676a1.041,1.041,0,0,0,2.082,0v-1.783h8.4a4.147,4.147,0,0,0,4.165-4.118v-.58l-6.247-5.025Zm0,0" transform="translate(-704 -582.427)"/><path class="a" d="M711.441,391.859l-1.778,1.763a3.077,3.077,0,0,0,.24,4.588l17.363,13.971a1.05,1.05,0,0,0,1.133.117l5.114-2.6Zm0,0" transform="translate(-708.419 -385.129)"/><path class="a" d="M798.414,314.855a1.024,1.024,0,0,0,.187-1.71L777.226,295.69a3.133,3.133,0,0,0-4.2.2l-4.323,4.287,22.614,18.281Zm-8.11-1.273a1.029,1.029,0,1,1,1.041-1.03,1.036,1.036,0,0,1-1.041,1.03Zm0,0" transform="translate(-764.207 -294.912)"/></g></g></g></g></g></g><g transform="translate(-206 -628)"><g transform="translate(159)"><rect class="c" width="104" height="90" transform="translate(47 628)"/></g><g transform="translate(192 -189)"><text class="d" transform="translate(26 891)"><tspan x="0" y="0">魚眼攝影機</tspan></text><g transform="translate(42 826)"><path class="e" d="M0,0H48V48H0Z"/><g transform="translate(-1097.188 -418.922)"><path class="a" d="M1140.7,429.274h-39.2a.311.311,0,0,0-.312.312h0v3.738a2.8,2.8,0,0,0,2.8,2.8h34.222a2.8,2.8,0,0,0,2.8-2.8v-3.738a.31.31,0,0,0-.3-.312h0Z" transform="translate(0)"/><path class="a" d="M1117.611,441.02a4.357,4.357,0,0,0-4.356,4.356v7.511a16.778,16.778,0,0,0,8.711,0v-7.511a4.361,4.361,0,0,0-4.355-4.357Zm.039,7.672a2.865,2.865,0,1,1,2.865-2.864A2.865,2.865,0,0,1,1117.649,448.693Z" transform="translate(3.488 3.395)"/><path class="a" d="M1136.889,436.492h-32.975a.316.316,0,0,0-.315.312v1.244c0,7.117,3.886,13.46,10.6,15.834v-7.123a6.229,6.229,0,1,1,12.456-.018v7.143c6.711-2.374,10.543-8.718,10.546-15.834v-1.244a.309.309,0,0,0-.309-.312h0Z" transform="translate(0.697 2.086)"/></g></g></g></g></g><g transform="translate(0 -90)"><g transform="translate(75 259)"><rect class="c" width="104" height="90" transform="translate(365 517)"/><g transform="translate(352 -293)"><text class="g" transform="translate(53 887.039)"><tspan x="0" y="0">IPC</tspan></text></g></g><path class="a" d="M36.429,21.333H3.312A3.316,3.316,0,0,0,0,24.645V47.827a3.316,3.316,0,0,0,3.312,3.312H14.907c-.035,1.321-.287,3.434-1.234,4.432a1.627,1.627,0,0,1-1.253.536.828.828,0,0,0,0,1.656h14.9a.828.828,0,0,0,0-1.656,1.621,1.621,0,0,1-1.252-.535c-.945-.993-1.2-3.109-1.235-4.432H36.429a3.316,3.316,0,0,0,3.312-3.312V24.645A3.316,3.316,0,0,0,36.429,21.333ZM19.871,49.488a1.661,1.661,0,1,1,1.661-1.661A1.663,1.663,0,0,1,19.871,49.488ZM3.312,44.515V24.645H36.429V44.515Z" transform="translate(472 770.084)"/></g></g></svg>