<svg xmlns="http://www.w3.org/2000/svg" xmlns:xlink="http://www.w3.org/1999/xlink" width="77.999" height="74" viewBox="0 0 77.999 74"><defs><style>.a{opacity:0.65;}.b,.c{fill:#fff;}.b{opacity:0;}.d{filter:url(#a);}</style><filter id="a" x="0" y="0" width="77.999" height="74" filterUnits="userSpaceOnUse"><feOffset dy="3" input="SourceAlpha"/><feGaussianBlur stdDeviation="3" result="b"/><feFlood flood-opacity="0.161"/><feComposite operator="in" in2="b"/><feComposite in="SourceGraphic"/></filter></defs><g transform="translate(9 6)"><g transform="translate(0)"><g class="d" transform="matrix(1, 0, 0, 1, -9, -6)"><path class="a" d="M26.722,53.653a3.792,3.792,0,0,1-.26-2.036H5a5,5,0,0,1-5-5V5A5,5,0,0,1,5,0H55a5,5,0,0,1,5,5V46.617a5,5,0,0,1-5,5H34.038a3.827,3.827,0,0,1-7.316,2.036Z" transform="translate(9 6)"/></g></g><g transform="translate(10 4.376)"><rect class="b" width="40.073" height="40.009" transform="translate(0 0)"/><g transform="translate(2.81 4.094)"><g transform="translate(0 0)"><g transform="translate(0)"><path class="c" d="M1054.872,618.586l-.943-.8-10.113,5.135,3.787,3.091a1.007,1.007,0,0,0,1.34-.063l5.983-5.916a.98.98,0,0,0-.054-1.444Zm0,0" transform="translate(-1021.186 -597.084)"/><path class="c" d="M712.043,607.124h-6.049v-1.643a1,1,0,0,0-1.994,0v9.267a1,1,0,0,0,1.994,0V613.04h8.043a3.971,3.971,0,0,0,3.988-3.944v-.555l-5.983-4.813Zm0,0" transform="translate(-704.002 -583.955)"/><path class="c" d="M711.328,391.859l-1.7,1.689a2.947,2.947,0,0,0,.23,4.394l16.629,13.38a1.006,1.006,0,0,0,1.085.112l4.9-2.487Zm0,0" transform="translate(-708.436 -386.042)"/><path class="c" d="M797.158,314.015a.981.981,0,0,0,.179-1.637L776.866,295.66a3,3,0,0,0-4.019.192l-4.14,4.105,21.658,17.508Zm-7.767-1.219a.986.986,0,1,1,1-.986.992.992,0,0,1-1,.986Zm0,0" transform="translate(-764.399 -295.543)"/></g></g></g></g></g></svg>