<svg xmlns="http://www.w3.org/2000/svg" width="27" height="22.667" viewBox="0 0 27 22.667"><defs><style>.a{fill:#363636;}.a,.b{stroke:#363636;}.b{fill:none;stroke-linecap:round;stroke-linejoin:round;stroke-width:2px;}</style></defs><g transform="translate(-2064.5 64.032)"><g transform="translate(2065 -63.532)"><path class="a" d="M23.833,44.834H12.683l-2.008-2.008a.541.541,0,0,0-.383-.159H2.167A2.169,2.169,0,0,0,0,44.834V62.167a2.169,2.169,0,0,0,2.167,2.167H23.833A2.169,2.169,0,0,0,26,62.167V47A2.169,2.169,0,0,0,23.833,44.834Zm1.083,17.333a1.085,1.085,0,0,1-1.083,1.083H2.167a1.085,1.085,0,0,1-1.083-1.083V44.834A1.085,1.085,0,0,1,2.167,43.75h7.9l2.008,2.008a.541.541,0,0,0,.383.159H23.833A1.085,1.085,0,0,1,24.917,47Z" transform="translate(0 -42.667)"/></g><path class="b" d="M10.5,15l3.7,3.742L17.892,15" transform="translate(2067.834 -65.961)"/><path class="b" d="M18,13.481V4.5" transform="translate(2064.254 -61.256)"/></g></svg>