<svg xmlns="http://www.w3.org/2000/svg" xmlns:xlink="http://www.w3.org/1999/xlink" width="77.999" height="74" viewBox="0 0 77.999 74"><defs><style>.a{opacity:0.65;}.b,.c{fill:#fff;}.b{opacity:0;}.d{filter:url(#a);}</style><filter id="a" x="0" y="0" width="77.999" height="74" filterUnits="userSpaceOnUse"><feOffset dy="3" input="SourceAlpha"/><feGaussianBlur stdDeviation="3" result="b"/><feFlood flood-opacity="0.161"/><feComposite operator="in" in2="b"/><feComposite in="SourceGraphic"/></filter></defs><g transform="translate(9 6)"><g transform="translate(0)"><g class="d" transform="matrix(1, 0, 0, 1, -9, -6)"><path class="a" d="M26.722,53.653a3.792,3.792,0,0,1-.26-2.036H5a5,5,0,0,1-5-5V5A5,5,0,0,1,5,0H55a5,5,0,0,1,5,5V46.617a5,5,0,0,1-5,5H34.038a3.827,3.827,0,0,1-7.316,2.036Z" transform="translate(9 6)"/></g></g><g transform="translate(10.122 4.376)"><rect class="b" width="40.073" height="40.009" transform="translate(0 0)"/><g transform="translate(1.825 10.002)"><path class="c" d="M1137.378,429.274h-35.9a.284.284,0,0,0-.286.284h0v3.4a2.558,2.558,0,0,0,2.565,2.548H1135.1a2.556,2.556,0,0,0,2.562-2.548v-3.4a.282.282,0,0,0-.278-.284h0Z" transform="translate(-1101.188 -429.274)"/><path class="c" d="M1117.244,441.02a3.979,3.979,0,0,0-3.989,3.966v6.839a15.454,15.454,0,0,0,7.979,0v-6.839a3.983,3.983,0,0,0-3.989-3.967Zm.035,6.986a2.609,2.609,0,1,1,2.625-2.608A2.616,2.616,0,0,1,1117.28,448.006Z" transform="translate(-1099.008 -427.234)"/><path class="c" d="M1134.09,436.492h-30.2a.289.289,0,0,0-.288.284v1.133c0,6.48,3.56,12.256,9.7,14.418v-6.486a5.7,5.7,0,1,1,11.409-.016v6.5c6.146-2.162,9.656-7.938,9.659-14.418v-1.133a.282.282,0,0,0-.283-.284h0Z" transform="translate(-1100.752 -428.02)"/></g></g></g></svg>