<svg xmlns="http://www.w3.org/2000/svg" width="40" height="40" viewBox="0 0 40 40"><defs><style>.a{opacity:0.8;}.b,.c{fill:#fff;}.b{opacity:0;}</style></defs><g class="a" transform="translate(0 1)"><rect class="b" width="40" height="40" transform="translate(0 -1)"/><g transform="translate(5.059 4.803)"><g transform="translate(0 0)"><path class="c" d="M1053.245,618.467l-.8-.686-8.624,4.38,3.229,2.636a.858.858,0,0,0,1.143-.053l5.1-5.045a.835.835,0,0,0-.046-1.231Zm0,0" transform="translate(-1024.514 -599.648)"/><path class="c" d="M710.86,606.624H705.7v-1.4a.85.85,0,0,0-1.7,0v7.9a.85.85,0,0,0,1.7,0v-1.457h6.86a3.387,3.387,0,0,0,3.4-3.364v-.474l-5.1-4.1Zm0,0" transform="translate(-704 -586.384)"/><path class="c" d="M710.948,391.859,709.5,393.3a2.513,2.513,0,0,0,.2,3.748l14.182,11.411a.858.858,0,0,0,.925.1l4.177-2.121Zm0,0" transform="translate(-708.48 -386.417)"/><path class="c" d="M792.971,311.214a.836.836,0,0,0,.153-1.4L775.666,295.56a2.559,2.559,0,0,0-3.428.164l-3.531,3.5,18.471,14.932Zm-6.624-1.04a.841.841,0,1,1,.85-.841.846.846,0,0,1-.85.841Zm0,0" transform="translate(-765.031 -294.979)"/></g></g></g></svg>