<svg xmlns="http://www.w3.org/2000/svg" width="24.397" height="24.397" viewBox="0 0 24.397 24.397"><defs><style>.a{fill:none;}.b{fill:#707070;}</style></defs><g transform="translate(391.65 -1218.72)"><path class="a" d="M-372.04,1234.085a.659.659,0,0,1,.652-.379,2.766,2.766,0,0,0,1.971-.817,2.767,2.767,0,0,0,.815-1.972,2.771,2.771,0,0,0-.817-1.97,2.772,2.772,0,0,0-1.968-.815h-.158a.623.623,0,0,1-.516-.276.925.925,0,0,0-.059-.185.649.649,0,0,1,.174-.738,2.79,2.79,0,0,0,0-3.942,2.825,2.825,0,0,0-3.988.045.64.64,0,0,1-.438.18.683.683,0,0,1-.451-.182.7.7,0,0,1-.191-.527,2.79,2.79,0,0,0-2.787-2.786h0a2.772,2.772,0,0,0-1.971.818,2.764,2.764,0,0,0-.815,1.971v.155a.627.627,0,0,1-.277.516.911.911,0,0,0-.184.058.65.65,0,0,1-.738-.173,2.792,2.792,0,0,0-3.944,0,2.807,2.807,0,0,0,.05,3.993.65.65,0,0,1,.1.742.645.645,0,0,1-.634.409A2.79,2.79,0,0,0-391,1231a2.791,2.791,0,0,0,2.787,2.788h.153a.631.631,0,0,1,.436.179.633.633,0,0,1,.193.447.674.674,0,0,1-.225.5,2.793,2.793,0,0,0,0,3.944,2.807,2.807,0,0,0,3.992-.05.651.651,0,0,1,.743-.1.651.651,0,0,1,.408.632,2.79,2.79,0,0,0,2.787,2.787,2.79,2.79,0,0,0,2.787-2.787v-.15a.633.633,0,0,1,.18-.437.628.628,0,0,1,.446-.193.652.652,0,0,1,.5.225,2.793,2.793,0,0,0,3.943,0,2.807,2.807,0,0,0-.049-3.992.621.621,0,0,1-.125-.688Zm-7.761.487a3.726,3.726,0,0,1-3.721-3.722,3.725,3.725,0,0,1,3.721-3.721,3.726,3.726,0,0,1,3.722,3.721A3.727,3.727,0,0,1-379.8,1234.572Z"/><path class="b" d="M-379.451,1234.974a4.058,4.058,0,0,1-4.054-4.054,4.058,4.058,0,0,1,4.054-4.054,4.058,4.058,0,0,1,4.054,4.054A4.059,4.059,0,0,1-379.451,1234.974Zm0-6.108a2.056,2.056,0,0,0-2.054,2.054,2.056,2.056,0,0,0,2.054,2.054,2.056,2.056,0,0,0,2.054-2.054A2.056,2.056,0,0,0-379.451,1228.866Z"/><path class="b" d="M-379.369,1243.117a3.039,3.039,0,0,1-3.036-3.036.71.71,0,0,0-.445-.689.708.708,0,0,0-.809.113,3.058,3.058,0,0,1-4.348.053,3.041,3.041,0,0,1,0-4.3.739.739,0,0,0,.245-.543.69.69,0,0,0-.211-.487.687.687,0,0,0-.475-.2h-.166A3.039,3.039,0,0,1-391.65,1231a3.04,3.04,0,0,1,3.036-3.036.7.7,0,0,0,.691-.445.706.706,0,0,0-.113-.808,3.059,3.059,0,0,1-.054-4.35,3.041,3.041,0,0,1,4.3,0,.707.707,0,0,0,.8.189.951.951,0,0,1,.2-.064.681.681,0,0,0,.3-.562v-.169a3.016,3.016,0,0,1,.888-2.147,3.012,3.012,0,0,1,2.146-.89h0a3.04,3.04,0,0,1,3.036,3.034.753.753,0,0,0,.207.574.705.705,0,0,0,.492.2.694.694,0,0,0,.477-.2,3.078,3.078,0,0,1,4.344-.049,3.041,3.041,0,0,1,0,4.3.706.706,0,0,0-.189.8,1.03,1.03,0,0,1,.064.2.681.681,0,0,0,.562.3h.172a3.013,3.013,0,0,1,2.144.888,3.012,3.012,0,0,1,.89,2.146,3.02,3.02,0,0,1-.888,2.148,3.022,3.022,0,0,1-2.147.89.719.719,0,0,0-.71.412l0,.012a.676.676,0,0,0,.136.75,3.058,3.058,0,0,1,.053,4.348,3.11,3.11,0,0,1-4.3,0,.7.7,0,0,0-.543-.245.689.689,0,0,0-.487.21.689.689,0,0,0-.2.476v.164A3.039,3.039,0,0,1-379.369,1243.117Zm-3.8-5.806a2.645,2.645,0,0,1,1.069.228,2.639,2.639,0,0,1,1.7,2.429c0,.007,0,.1,0,.113a1.037,1.037,0,0,0,1.036,1.036,1.037,1.037,0,0,0,1.036-1.036v-.173a2.682,2.682,0,0,1,.759-1.858,2.7,2.7,0,0,1,3.807-.061l.073.073a1.064,1.064,0,0,0,1.467,0,1.032,1.032,0,0,0,.3-.734,1.03,1.03,0,0,0-.3-.733,2.7,2.7,0,0,1-.608-3.019,2.68,2.68,0,0,1,2.451-1.622,1.1,1.1,0,0,0,.828-.3,1.029,1.029,0,0,0,.3-.733,1.027,1.027,0,0,0-.3-.732,1.024,1.024,0,0,0-.731-.3h-.175a2.679,2.679,0,0,1-2.456-1.624.987.987,0,0,1-.073-.265,2.664,2.664,0,0,1,.614-2.763,1.1,1.1,0,0,0,.372-.8,1.031,1.031,0,0,0-.3-.733,1.059,1.059,0,0,0-1.466,0l-.074.073a2.683,2.683,0,0,1-1.847.758,2.688,2.688,0,0,1-1.912-.771,2.676,2.676,0,0,1-.807-1.9v-.1a1.038,1.038,0,0,0-1.036-1.037h0a1.036,1.036,0,0,0-1.035,1.037v.173a2.68,2.68,0,0,1-1.623,2.456.991.991,0,0,1-.266.073,2.666,2.666,0,0,1-2.763-.614,1.065,1.065,0,0,0-1.536-.067,1.027,1.027,0,0,0-.3.733,1.032,1.032,0,0,0,.3.734,2.7,2.7,0,0,1,.6,3.024,2.643,2.643,0,0,1-2.428,1.7h-.116A1.036,1.036,0,0,0-389.65,1231a1.037,1.037,0,0,0,1.036,1.036h.175a2.686,2.686,0,0,1,1.858.759,2.679,2.679,0,0,1,.819,1.891,2.675,2.675,0,0,1-.76,1.917l-.071.072a1.031,1.031,0,0,0-.3.733,1.032,1.032,0,0,0,.3.734,1.038,1.038,0,0,0,1.467,0A2.791,2.791,0,0,1-383.17,1237.311Zm11.253-3.337h0Z"/></g></svg>